<mxfile host="app.diagrams.net" modified="2023-08-03T10:14:03.728Z" agent="Mozilla/5.0 (Macintosh; Intel Mac OS X 10_15_7) AppleWebKit/537.36 (KHTML, like Gecko) Chrome/115.0.0.0 Safari/537.36" version="21.5.2" etag="_YClsrC41DRGdaM3oB-4" type="github">
  <diagram name="第 1 页" id="OV5e-AW-C4CmbYTyAHI9">
    <mxGraphModel>
      <root>
        <mxCell id="0" />
        <mxCell id="1" parent="0" />
      </root>
    </mxGraphModel>
  </diagram>
</mxfile>
